<?xml version="1.0" standalone="no"?>
<!DOCTYPE svg PUBLIC "-//W3C//DTD SVG 20010904//EN"
 "http://www.w3.org/TR/2001/REC-SVG-20010904/DTD/svg10.dtd">
<svg version="1.0" xmlns="http://www.w3.org/2000/svg"
 width="266.000000pt" height="129.000000pt" viewBox="0 0 266.000000 129.000000"
 preserveAspectRatio="xMidYMid meet">

<g transform="translate(0.000000,129.000000) scale(0.100000,-0.100000)"
fill="#000000" stroke="none">
<path d="M167 1182 l-27 -28 0 -347 c0 -333 1 -347 19 -347 10 0 21 -9 24 -20
5 -20 14 -20 349 -20 l344 0 27 28 27 28 0 337 -1 337 -30 30 c-30 28 -33 29
-141 29 -61 0 -119 -4 -129 -10 -13 -6 -19 -6 -19 1 0 6 -71 10 -208 10 l-208
0 -27 -28z m152 -46 c10 -12 8 -17 -7 -25 -15 -8 -23 -7 -32 4 -13 16 -6 35
14 35 8 0 19 -6 25 -14z m399 -109 c4 -20 -25 -34 -40 -19 -15 15 -1 44 19 40
10 -2 19 -11 21 -21z m-251 -122 c7 -20 -2 -29 -21 -22 -9 4 -13 13 -10 22 8
19 23 19 31 0z m93 -5 c0 -11 -7 -20 -15 -20 -8 0 -15 9 -15 20 0 11 7 20 15
20 8 0 15 -9 15 -20z m-235 -100 c15 -16 16 -22 5 -35 -17 -21 -64 -15 -68 8
-4 20 14 47 33 47 6 0 20 -9 30 -20z m1 -105 c4 -11 23 -16 63 -17 l56 -2 -55
-3 c-34 -2 -59 -10 -67 -19 -14 -19 -42 -15 -56 8 -8 12 -7 21 2 32 17 20 50
21 57 1z m517 -158 c3 -8 -3 -14 -14 -14 -11 -1 -19 5 -19 13 0 18 26 19 33 1z
m-535 -88 c-2 -6 -8 -10 -13 -10 -5 0 -11 4 -13 10 -2 6 4 11 13 11 9 0 15 -5
13 -11z"/>
<path d="M2043 1130 c-139 -29 -220 -119 -198 -219 19 -89 109 -132 340 -161
187 -23 252 -55 262 -127 5 -39 2 -46 -29 -77 -52 -52 -124 -69 -263 -64 -89
3 -120 9 -158 27 -53 26 -88 67 -107 124 -10 32 -16 37 -42 37 -29 0 -30 -2
-24 -31 15 -78 72 -149 143 -181 158 -70 445 -34 515 65 34 48 33 145 -2 182
-50 54 -135 82 -315 105 -120 15 -199 38 -230 66 -20 18 -25 33 -25 72 0 53
15 74 80 108 50 26 218 32 292 10 66 -19 121 -73 138 -135 9 -36 14 -41 40
-41 35 0 36 8 13 75 -21 62 -83 124 -148 148 -58 21 -218 31 -282 17z"/>
<path d="M1290 798 c-85 -182 -158 -339 -162 -349 -6 -16 -3 -19 25 -19 31 0
34 4 81 105 l49 105 194 0 193 0 50 -105 c47 -101 50 -105 80 -105 40 0 43
-11 -84 254 -56 116 -126 264 -156 328 -52 112 -56 117 -85 117 -30 0 -32 -4
-185 -331z m269 76 c45 -95 81 -175 81 -178 0 -3 -75 -6 -166 -6 -93 0 -164 4
-162 9 11 30 162 350 164 348 1 -1 39 -79 83 -173z"/>
<path d="M147 273 c-11 -10 -8 -133 3 -133 6 0 10 14 10 30 0 27 3 30 33 30
37 0 57 15 57 42 0 27 -83 52 -103 31z m83 -32 c0 -20 -18 -31 -51 -31 -14 0
-19 7 -19 25 0 22 4 25 35 25 28 0 35 -4 35 -19z"/>
<path d="M278 210 l-3 -70 55 1 55 2 -45 6 c-37 5 -46 10 -48 29 -3 19 1 22
32 22 20 0 36 5 36 10 0 6 -16 10 -35 10 -28 0 -35 4 -35 20 0 17 7 20 40 20
22 0 40 5 40 10 0 6 -20 10 -44 10 l-44 0 -4 -70z"/>
<path d="M398 268 c-2 -7 -1 -40 3 -73 l6 -60 2 55 2 55 27 -52 c14 -29 29
-53 32 -53 3 0 13 20 23 45 11 25 22 45 25 45 4 0 6 -18 6 -40 -1 -22 2 -43 7
-46 5 -3 9 26 9 65 0 39 -4 71 -8 71 -4 0 -21 -26 -36 -57 l-29 -58 -25 58
c-24 56 -36 69 -44 45z"/>
<path d="M590 260 c-43 -43 -15 -120 43 -120 37 0 57 25 57 70 0 62 -58 92
-100 50z m80 -21 c16 -29 4 -68 -25 -81 -42 -19 -75 25 -56 76 13 34 64 37 81
5z"/>
<path d="M720 212 c0 -41 4 -72 10 -72 6 0 10 14 10 30 0 28 2 30 40 30 38 0
40 -2 40 -30 0 -16 5 -30 10 -30 6 0 10 28 10 64 0 36 -4 68 -10 71 -6 4 -10
-7 -10 -24 0 -24 -5 -31 -20 -32 -11 -1 -28 -2 -37 -3 -12 -1 -19 7 -21 24 -2
14 -8 29 -13 35 -5 5 -9 -19 -9 -63z"/>
<path d="M860 270 c0 -5 11 -10 25 -10 24 0 25 -3 25 -60 0 -33 4 -60 9 -60 5
0 8 27 6 60 -3 58 -2 60 21 60 13 0 24 5 24 10 0 6 -25 10 -55 10 -30 0 -55
-4 -55 -10z"/>
<path d="M1084 270 c-12 -4 -24 -15 -27 -24 -8 -20 7 -21 23 -1 16 20 54 19
71 -1 10 -13 10 -17 0 -24 -7 -4 -21 -5 -31 -3 -10 3 -21 0 -24 -6 -5 -7 5
-11 28 -11 39 0 45 -10 20 -34 -21 -22 -40 -20 -65 5 -26 26 -34 20 -13 -9 17
-25 60 -29 89 -8 28 20 26 83 -4 107 -25 21 -35 22 -67 9z"/>
<path d="M1214 223 c-3 -32 -11 -64 -16 -70 -6 -8 -6 -13 -1 -13 21 0 33 27
33 72 l0 48 35 0 35 0 0 -60 c0 -33 4 -60 10 -60 6 0 10 30 10 70 l0 70 -49 0
-50 0 -7 -57z"/>
<path d="M1350 210 l0 -70 53 2 c47 1 48 2 12 5 -39 4 -55 16 -55 41 0 7 15
12 41 12 24 0 38 4 34 10 -3 6 -22 10 -41 10 -28 0 -35 4 -32 18 2 12 14 18
41 20 52 4 46 22 -8 22 l-45 0 0 -70z"/>
<path d="M1470 211 c0 -41 4 -71 10 -71 6 0 10 11 10 24 0 13 6 29 14 36 12 9
19 5 38 -24 13 -20 26 -36 31 -36 12 0 8 10 -19 46 l-27 35 28 29 c41 43 18
37 -27 -7 l-38 -37 0 31 c0 18 -4 35 -10 38 -6 4 -10 -20 -10 -64z"/>
<path d="M1600 270 c0 -5 11 -10 25 -10 23 0 24 -4 28 -62 l3 -63 2 63 c2 59
3 62 27 62 14 0 25 5 25 10 0 6 -25 10 -55 10 -30 0 -55 -4 -55 -10z"/>
<path d="M1737 273 c-11 -10 -8 -133 3 -133 6 0 10 14 10 30 0 27 3 30 33 30
37 0 57 15 57 42 0 27 -83 52 -103 31z m81 -35 c-2 -18 -11 -24 -35 -26 -30
-3 -33 -1 -33 22 0 23 4 26 36 26 31 0 35 -3 32 -22z"/>
<path d="M1900 273 c-41 -15 -55 -87 -22 -116 23 -21 66 -22 86 -1 25 24 21
90 -6 108 -23 17 -33 18 -58 9z m60 -32 c15 -28 13 -46 -9 -72 -16 -20 -22
-22 -44 -12 -31 14 -41 42 -28 77 13 33 64 37 81 7z"/>
<path d="M2010 210 c0 -40 4 -70 10 -70 6 0 10 14 10 30 0 28 2 30 40 30 38 0
40 -2 40 -30 0 -16 5 -30 10 -30 6 0 10 28 10 64 0 36 -4 68 -10 71 -6 4 -10
-6 -10 -24 0 -36 -6 -40 -47 -34 -29 5 -33 9 -33 34 0 16 -4 29 -10 29 -6 0
-10 -30 -10 -70z"/>
<path d="M2162 213 c-1 -40 1 -73 6 -73 4 0 23 23 42 50 19 27 39 50 43 50 5
0 7 -23 5 -50 -1 -28 0 -50 5 -50 4 0 7 32 7 70 0 39 -2 70 -5 70 -2 0 -24
-26 -47 -57 l-43 -57 -6 60 -6 59 -1 -72z"/>
<path d="M2309 212 c-2 -39 -1 -72 4 -72 4 0 7 11 7 24 0 32 28 56 41 35 16
-30 47 -64 53 -58 3 3 -6 22 -21 42 l-26 37 23 25 c38 40 17 39 -26 -2 l-39
-37 -6 40 c-4 33 -6 27 -10 -34z"/>
<path d="M2440 212 c0 -40 4 -72 8 -72 4 0 26 24 47 53 l40 52 3 -52 c2 -29 6
-53 11 -53 9 0 8 126 -1 136 -4 3 -23 -17 -43 -45 -20 -28 -41 -48 -47 -45 -5
3 -8 23 -7 45 2 21 0 41 -4 45 -4 4 -7 -25 -7 -64z"/>
</g>
</svg>
